<svg xmlns="http://www.w3.org/2000/svg" xmlns:xlink="http://www.w3.org/1999/xlink" width="300" zoomAndPan="magnify" viewBox="0 0 224.87999 225" height="300" preserveAspectRatio="xMidYMid meet" version="1.0"><defs><clipPath id="b26334c40c"><path d="M 16 189 L 162 189 L 162 212.964844 L 16 212.964844 Z M 16 189 " clip-rule="nonzero"/></clipPath><clipPath id="cb253f3b49"><path d="M 3 12.074219 L 39 12.074219 L 39 58 L 3 58 Z M 3 12.074219 " clip-rule="nonzero"/></clipPath><clipPath id="0353e102a2"><path d="M 178 154 L 221.71875 154 L 221.71875 194 L 178 194 Z M 178 154 " clip-rule="nonzero"/></clipPath><clipPath id="48f0740df1"><path d="M 56.914062 196.457031 L 94 196.457031 L 94 208.445312 L 56.914062 208.445312 Z M 56.914062 196.457031 " clip-rule="nonzero"/></clipPath><clipPath id="1818b5280d"><path d="M 62.90625 196.457031 L 88.003906 196.457031 C 89.59375 196.457031 91.117188 197.089844 92.242188 198.214844 C 93.367188 199.339844 93.996094 200.863281 93.996094 202.453125 C 93.996094 204.042969 93.367188 205.566406 92.242188 206.691406 C 91.117188 207.8125 89.59375 208.445312 88.003906 208.445312 L 62.90625 208.445312 C 61.316406 208.445312 59.792969 207.8125 58.667969 206.691406 C 57.542969 205.566406 56.914062 204.042969 56.914062 202.453125 C 56.914062 200.863281 57.542969 199.339844 58.667969 198.214844 C 59.792969 197.089844 61.316406 196.457031 62.90625 196.457031 Z M 62.90625 196.457031 " clip-rule="nonzero"/></clipPath></defs><g clip-path="url(#b26334c40c)"><path fill="#000000" d="M 89.015625 189.820312 C 53.738281 189.820312 16.246094 193.871094 16.246094 201.378906 C 16.246094 208.886719 53.738281 212.9375 89.015625 212.9375 C 124.289062 212.9375 161.78125 208.886719 161.78125 201.378906 C 161.78125 193.871094 124.289062 189.820312 89.015625 189.820312 Z M 89.015625 189.820312 " fill-opacity="1" fill-rule="nonzero"/></g><path fill="#000000" d="M 51.480469 186.832031 C 50.84375 186.832031 50.203125 186.703125 49.582031 186.433594 C 47.191406 185.382812 46.101562 182.589844 47.152344 180.199219 C 47.789062 178.742188 48.621094 176.859375 49.59375 174.644531 C 54.484375 163.554688 62.667969 144.992188 69.035156 129.417969 C 70.019531 127 72.78125 125.835938 75.195312 126.835938 C 77.613281 127.824219 78.765625 130.589844 77.777344 133.007812 C 71.359375 148.703125 63.148438 167.335938 58.238281 178.46875 C 57.265625 180.675781 56.4375 182.550781 55.804688 184.003906 C 55.027344 185.78125 53.296875 186.835938 51.472656 186.835938 Z M 51.480469 186.832031 " fill-opacity="1" fill-rule="nonzero"/><path fill="#ffffff" d="M 32.101562 197.949219 C 33.792969 198.609375 35.535156 199.128906 37.3125 199.488281 C 38.570312 199.742188 39.835938 199.929688 41.109375 200.09375 C 39.523438 199.324219 38.003906 198.417969 36.617188 197.332031 C 35.109375 197.519531 33.605469 197.730469 32.101562 197.945312 Z M 32.101562 197.949219 " fill-opacity="1" fill-rule="nonzero"/><path fill="#ffffff" d="M 56.417969 181.007812 C 54.933594 180.667969 53.472656 180.246094 52.027344 179.765625 C 49.703125 178.988281 47.441406 177.90625 45.34375 176.613281 C 44.871094 177.570312 44.394531 178.953125 44.910156 179.898438 C 45.660156 180.871094 47.007812 181.40625 48.105469 181.859375 C 49.808594 182.558594 51.59375 183.089844 53.382812 183.519531 C 54.894531 183.882812 56.492188 184.226562 58.050781 184.195312 C 58.644531 184.183594 58.9375 184.160156 59.191406 183.597656 C 59.480469 182.945312 59.621094 182.230469 59.699219 181.515625 C 58.589844 181.476562 57.492188 181.257812 56.414062 181.007812 Z M 56.417969 181.007812 " fill-opacity="1" fill-rule="nonzero"/><path fill="#ffffff" d="M 27.25 182.378906 C 24.226562 182.746094 21.207031 183.160156 18.195312 183.609375 C 18.445312 185.167969 18.949219 186.6875 19.6875 188.078125 C 19.726562 188.066406 19.761719 188.042969 19.808594 188.035156 C 22.910156 187.5625 26.019531 187.140625 29.132812 186.765625 C 28.574219 185.269531 28.042969 183.761719 27.253906 182.382812 Z M 27.25 182.378906 " fill-opacity="1" fill-rule="nonzero"/><path fill="#ffffff" d="M 30.25 189.433594 C 30 188.929688 29.78125 188.410156 29.570312 187.890625 C 29.558594 187.890625 29.550781 187.902344 29.53125 187.902344 C 26.457031 188.273438 23.386719 188.691406 20.324219 189.15625 C 20.683594 189.710938 21.078125 190.242188 21.515625 190.742188 C 22.207031 191.527344 22.964844 192.246094 23.746094 192.933594 C 26.375 192.535156 29.015625 192.175781 31.65625 191.855469 C 31.148438 191.074219 30.671875 190.273438 30.253906 189.4375 Z M 30.25 189.433594 " fill-opacity="1" fill-rule="nonzero"/><path fill="#ffffff" d="M 47.496094 199.035156 C 44.203125 198.632812 41.109375 196.867188 38.453125 194.9375 C 36.929688 193.835938 35.597656 192.578125 34.566406 190.996094 C 33.394531 189.195312 32.554688 187.21875 31.726562 185.242188 C 30.917969 183.324219 30.140625 181.296875 28.835938 179.652344 C 27.773438 178.308594 26.398438 177.195312 24.859375 176.433594 C 24.011719 176.015625 22.976562 175.542969 22.003906 175.542969 C 22.003906 175.542969 21.992188 175.542969 21.988281 175.542969 C 21.984375 175.550781 21.945312 175.554688 21.941406 175.550781 C 21.875 175.585938 21.808594 175.621094 21.75 175.664062 C 21.460938 175.871094 21.199219 176.113281 20.9375 176.351562 C 20.910156 176.378906 20.882812 176.402344 20.855469 176.425781 C 23.648438 176.578125 26.167969 178.597656 27.675781 180.824219 C 29.355469 183.308594 29.992188 186.261719 31.316406 188.925781 C 32.578125 191.457031 34.273438 193.773438 36.410156 195.636719 C 38.996094 197.890625 42.078125 199.425781 45.316406 200.507812 C 48.402344 200.75 51.496094 200.894531 54.5625 201.15625 C 54.726562 200.566406 54.816406 199.957031 54.867188 199.34375 C 52.410156 199.371094 49.925781 199.324219 47.488281 199.027344 Z M 47.496094 199.035156 " fill-opacity="1" fill-rule="nonzero"/><path fill="#ffffff" d="M 54.226562 184.910156 C 52.046875 184.441406 49.875 183.847656 47.804688 183.011719 C 47.074219 182.714844 46.269531 182.371094 45.535156 181.9375 C 46.101562 183.566406 46.664062 185.386719 47.855469 186.65625 C 48.375 187.210938 47.46875 187.964844 46.945312 187.414062 C 45.613281 185.992188 45.007812 183.953125 44.363281 182.152344 C 42.832031 177.863281 41.023438 173.347656 36.71875 171.164062 C 33.9375 169.75 30.578125 169.328125 27.582031 170.296875 C 25.480469 170.976562 23.519531 172.371094 22.601562 174.402344 C 23.53125 174.515625 24.496094 174.941406 25.28125 175.328125 C 26.78125 176.070312 28.148438 177.082031 29.269531 178.335938 C 30.671875 179.898438 31.542969 181.824219 32.363281 183.738281 C 33.238281 185.773438 34.039062 187.851562 35.171875 189.761719 C 36.214844 191.511719 37.582031 192.859375 39.226562 194.042969 C 40.867188 195.222656 42.652344 196.253906 44.515625 197.035156 C 45.84375 197.59375 47.144531 197.832031 48.578125 197.960938 C 50.765625 198.152344 52.976562 198.191406 55.175781 198.164062 C 57.792969 194.355469 59.332031 189.980469 58.707031 185.324219 C 57.269531 185.578125 55.59375 185.203125 54.214844 184.910156 Z M 54.226562 184.910156 " fill-opacity="1" fill-rule="nonzero"/><path fill="#ffffff" d="M 32.386719 192.933594 C 32.355469 192.941406 32.332031 192.960938 32.296875 192.964844 C 29.847656 193.257812 27.398438 193.605469 24.957031 193.964844 C 26.535156 195.1875 28.25 196.214844 30.054688 197.070312 C 30.105469 197.050781 30.144531 197.027344 30.199219 197.019531 C 31.929688 196.757812 33.671875 196.527344 35.410156 196.308594 C 34.28125 195.289062 33.277344 194.15625 32.386719 192.933594 Z M 32.386719 192.933594 " fill-opacity="1" fill-rule="nonzero"/><path fill="#ffffff" d="M 23.648438 178.539062 C 22.605469 177.933594 20.910156 177.285156 19.691406 177.6875 C 18.003906 178.238281 17.933594 180.886719 18.050781 182.441406 C 20.875 182.015625 23.707031 181.632812 26.539062 181.285156 C 25.757812 180.195312 24.808594 179.21875 23.644531 178.542969 Z M 23.648438 178.539062 " fill-opacity="1" fill-rule="nonzero"/><path fill="#000000" d="M 60.941406 180.996094 C 60.96875 180.574219 60.628906 180.339844 60.25 180.363281 C 58.980469 180.425781 57.644531 180.101562 56.421875 179.808594 C 55.027344 179.476562 53.644531 179.070312 52.292969 178.609375 C 49.910156 177.800781 47.585938 176.679688 45.460938 175.3125 C 45.214844 175.15625 44.800781 175.160156 44.636719 175.449219 C 44.320312 176.011719 43.988281 176.703125 43.757812 177.425781 C 43.40625 176.671875 43.035156 175.925781 42.597656 175.21875 C 41.230469 173.003906 39.394531 171.175781 37.046875 170.015625 C 34.128906 168.578125 30.625 168.160156 27.492188 169.097656 C 24.765625 169.910156 22.171875 171.796875 21.261719 174.589844 C 20.996094 174.746094 20.753906 174.949219 20.515625 175.152344 C 19.84375 175.738281 19.226562 176.390625 18.546875 176.96875 C 18.539062 176.972656 18.539062 176.976562 18.53125 176.980469 C 17.457031 177.800781 16.992188 179.375 16.875 180.703125 C 16.625 183.5 17.417969 186.449219 18.765625 188.886719 C 20.460938 191.957031 23.300781 194.445312 26.21875 196.324219 C 28.847656 198.011719 31.742188 199.265625 34.75 200.085938 C 41.292969 201.878906 48.230469 201.773438 54.941406 202.386719 C 54.964844 202.386719 54.988281 202.378906 55.015625 202.378906 C 55.035156 202.378906 55.054688 202.371094 55.070312 202.371094 C 55.113281 202.371094 55.164062 202.363281 55.207031 202.351562 C 55.351562 202.300781 55.480469 202.199219 55.546875 202.003906 C 55.882812 201.03125 56.019531 199.980469 56.074219 198.953125 C 58.960938 194.792969 60.617188 189.992188 59.851562 184.890625 C 59.847656 184.847656 59.824219 184.824219 59.8125 184.789062 C 60.695312 183.890625 60.851562 182.054688 60.929688 180.996094 Z M 19.691406 177.6875 C 20.910156 177.289062 22.605469 177.933594 23.648438 178.539062 C 24.808594 179.21875 25.761719 180.195312 26.542969 181.28125 C 23.707031 181.625 20.878906 182.011719 18.054688 182.4375 C 17.9375 180.882812 18.007812 178.234375 19.695312 177.683594 Z M 19.6875 188.082031 C 18.949219 186.691406 18.449219 185.171875 18.195312 183.613281 C 21.207031 183.164062 24.226562 182.75 27.25 182.382812 C 28.039062 183.765625 28.570312 185.273438 29.128906 186.765625 C 26.015625 187.140625 22.90625 187.566406 19.804688 188.035156 C 19.753906 188.042969 19.726562 188.066406 19.679688 188.078125 Z M 21.515625 190.746094 C 21.078125 190.246094 20.6875 189.714844 20.324219 189.160156 C 23.386719 188.695312 26.457031 188.28125 29.53125 187.910156 C 29.550781 187.910156 29.558594 187.898438 29.570312 187.894531 C 29.78125 188.417969 30 188.933594 30.25 189.4375 C 30.667969 190.277344 31.144531 191.078125 31.652344 191.855469 C 29.007812 192.179688 26.371094 192.535156 23.742188 192.933594 C 22.964844 192.246094 22.207031 191.527344 21.511719 190.742188 Z M 30.054688 197.074219 C 28.25 196.21875 26.535156 195.191406 24.957031 193.96875 C 27.398438 193.609375 29.847656 193.261719 32.296875 192.96875 C 32.332031 192.96875 32.355469 192.949219 32.386719 192.9375 C 33.277344 194.160156 34.28125 195.292969 35.410156 196.3125 C 33.671875 196.53125 31.929688 196.761719 30.199219 197.023438 C 30.144531 197.03125 30.101562 197.058594 30.054688 197.074219 Z M 37.3125 199.492188 C 35.535156 199.136719 33.792969 198.613281 32.101562 197.957031 C 33.605469 197.742188 35.109375 197.523438 36.617188 197.34375 C 38.003906 198.429688 39.523438 199.335938 41.109375 200.101562 C 39.835938 199.9375 38.570312 199.746094 37.3125 199.496094 Z M 54.574219 201.171875 C 51.503906 200.90625 48.40625 200.765625 45.324219 200.523438 C 42.085938 199.445312 39.011719 197.90625 36.417969 195.652344 C 34.28125 193.792969 32.582031 191.472656 31.324219 188.941406 C 30 186.28125 29.367188 183.324219 27.683594 180.84375 C 26.171875 178.613281 23.660156 176.597656 20.867188 176.445312 C 20.890625 176.417969 20.917969 176.390625 20.945312 176.367188 C 21.207031 176.132812 21.46875 175.886719 21.757812 175.683594 C 21.820312 175.636719 21.882812 175.601562 21.949219 175.566406 C 21.949219 175.574219 21.992188 175.566406 21.996094 175.558594 C 21.996094 175.558594 22.007812 175.558594 22.011719 175.558594 C 22.984375 175.558594 24.015625 176.03125 24.867188 176.453125 C 26.402344 177.214844 27.78125 178.324219 28.847656 179.667969 C 30.148438 181.316406 30.921875 183.34375 31.734375 185.261719 C 32.570312 187.234375 33.402344 189.207031 34.574219 191.011719 C 35.605469 192.597656 36.9375 193.855469 38.460938 194.957031 C 41.113281 196.878906 44.207031 198.652344 47.507812 199.054688 C 49.941406 199.351562 52.425781 199.394531 54.882812 199.371094 C 54.835938 199.980469 54.738281 200.59375 54.582031 201.183594 Z M 55.183594 198.175781 C 52.988281 198.199219 50.773438 198.160156 48.585938 197.96875 C 47.15625 197.839844 45.855469 197.601562 44.527344 197.046875 C 42.65625 196.261719 40.875 195.234375 39.234375 194.050781 C 37.589844 192.867188 36.222656 191.519531 35.183594 189.769531 C 34.046875 187.859375 33.246094 185.78125 32.371094 183.746094 C 31.550781 181.832031 30.679688 179.90625 29.277344 178.34375 C 28.15625 177.089844 26.792969 176.082031 25.289062 175.335938 C 24.507812 174.945312 23.539062 174.527344 22.609375 174.414062 C 23.527344 172.382812 25.488281 170.984375 27.589844 170.304688 C 30.585938 169.339844 33.945312 169.757812 36.730469 171.171875 C 41.035156 173.355469 42.839844 177.871094 44.371094 182.160156 C 45.015625 183.960938 45.617188 185.996094 46.957031 187.421875 C 47.476562 187.972656 48.382812 187.222656 47.863281 186.664062 C 46.671875 185.390625 46.113281 183.574219 45.542969 181.945312 C 46.277344 182.382812 47.082031 182.726562 47.8125 183.019531 C 49.882812 183.859375 52.054688 184.449219 54.234375 184.917969 C 55.613281 185.210938 57.289062 185.59375 58.730469 185.335938 C 59.355469 189.992188 57.8125 194.367188 55.199219 198.175781 Z M 59.195312 183.601562 C 58.945312 184.164062 58.648438 184.1875 58.054688 184.199219 C 56.496094 184.230469 54.894531 183.886719 53.386719 183.523438 C 51.597656 183.09375 49.816406 182.5625 48.109375 181.863281 C 47.011719 181.414062 45.667969 180.875 44.914062 179.902344 C 44.394531 178.957031 44.875 177.578125 45.347656 176.617188 C 47.445312 177.90625 49.707031 178.988281 52.035156 179.769531 C 53.476562 180.253906 54.941406 180.671875 56.421875 181.015625 C 57.5 181.261719 58.597656 181.480469 59.707031 181.523438 C 59.628906 182.234375 59.488281 182.949219 59.199219 183.601562 Z M 59.195312 183.601562 " fill-opacity="1" fill-rule="nonzero"/><path fill="#000000" d="M 110.855469 181.273438 C 95.351562 173.574219 79.652344 155.898438 86.429688 131.398438 L 95.539062 133.925781 C 90.304688 152.84375 102.191406 166.40625 115.054688 172.792969 L 110.859375 181.273438 Z M 110.855469 181.273438 " fill-opacity="1" fill-rule="nonzero"/><path fill="#000000" d="M 49.328125 92.355469 C 27.679688 81.394531 24.433594 68.292969 21.570312 56.734375 L 21.308594 55.671875 L 30.476562 53.378906 L 30.742188 54.453125 C 33.347656 64.96875 35.808594 74.898438 53.589844 83.902344 L 49.328125 92.351562 Z M 49.328125 92.355469 " fill-opacity="1" fill-rule="nonzero"/><path fill="#ffffff" d="M 167.8125 57.210938 C 167.632812 57.875 167.246094 58.46875 166.582031 58.898438 C 166.554688 58.917969 166.519531 58.917969 166.488281 58.9375 C 166.46875 58.953125 166.457031 58.976562 166.433594 58.992188 C 165.597656 59.5 164.65625 59.632812 163.726562 59.28125 C 161.980469 58.636719 160.898438 56.761719 160.386719 55.066406 C 160.054688 53.976562 159.800781 52.550781 160.253906 51.441406 C 154.007812 47.191406 147.023438 43.621094 139.480469 40.835938 C 137.273438 40.019531 135.09375 39.285156 132.984375 38.640625 C 131.902344 39.8125 130.363281 40.726562 128.820312 41.050781 C 127.078125 41.414062 125.101562 40.957031 124.445312 39.125 C 124.433594 39.09375 124.4375 39.066406 124.433594 39.035156 C 124.421875 39.011719 124.398438 38.992188 124.390625 38.960938 C 124.109375 38.097656 124.199219 37.242188 124.628906 36.464844 C 120.566406 35.566406 116.5625 34.941406 112.679688 34.601562 C 112.71875 34.660156 112.773438 34.714844 112.8125 34.773438 C 113.371094 35.640625 113.773438 36.664062 113.691406 37.710938 C 113.625 38.546875 113.183594 39.28125 112.539062 39.796875 C 112.511719 39.820312 112.484375 39.824219 112.460938 39.835938 C 112.4375 39.859375 112.429688 39.886719 112.402344 39.902344 C 111.660156 40.46875 110.722656 40.683594 109.820312 40.441406 C 107.988281 39.960938 106.742188 38.269531 106.023438 36.609375 C 105.734375 35.941406 105.445312 35.078125 105.382812 34.238281 C 77.144531 34.164062 59.117188 48.722656 53.753906 63.289062 C 50.394531 72.4375 54.601562 80.929688 66.621094 89.242188 C 78.507812 97.46875 97.097656 104.835938 113.714844 110.960938 C 130.335938 117.085938 149.269531 123.5625 163.632812 125 C 178.171875 126.472656 186.871094 122.738281 190.230469 113.589844 C 195.433594 99.410156 189.355469 75.621094 167.8125 57.210938 Z M 146.011719 50.746094 C 144.746094 52.160156 142.710938 52.523438 140.898438 52.453125 C 139.441406 52.398438 137.410156 51.976562 136.847656 50.410156 C 136.832031 50.359375 136.835938 50.316406 136.828125 50.269531 C 136.792969 50.207031 136.769531 50.132812 136.761719 50.046875 C 136.566406 47.777344 139.375 46.304688 141.191406 45.765625 C 143.320312 45.132812 146.074219 45.480469 146.664062 47.980469 C 146.671875 48.011719 146.664062 48.035156 146.664062 48.066406 C 146.671875 48.097656 146.695312 48.121094 146.699219 48.152344 C 146.886719 49.074219 146.644531 50.042969 146.007812 50.746094 Z M 155.542969 69.25 C 155.542969 69.328125 155.523438 69.414062 155.476562 69.496094 C 155.039062 70.332031 154.226562 70.75 153.332031 70.945312 C 150.429688 71.589844 144.613281 69.898438 146.007812 65.917969 C 146.023438 65.890625 146.039062 65.871094 146.050781 65.84375 C 146.0625 65.816406 146.050781 65.789062 146.066406 65.757812 C 146.953125 63.445312 149.75 63.472656 151.679688 64.339844 C 152.757812 64.820312 153.765625 65.515625 154.566406 66.382812 C 155.242188 67.109375 155.820312 68.117188 155.589844 69.144531 C 155.578125 69.191406 155.554688 69.21875 155.539062 69.253906 Z M 178.566406 77.652344 C 177.6875 79.035156 176.101562 80.253906 174.546875 80.765625 C 173.574219 81.082031 172.507812 81.21875 171.527344 80.875 C 170.761719 80.601562 170.1875 80.011719 169.84375 79.289062 C 169.832031 79.257812 169.832031 79.230469 169.820312 79.203125 C 169.804688 79.175781 169.78125 79.15625 169.769531 79.128906 C 169.378906 78.246094 169.410156 77.257812 169.882812 76.417969 C 170.800781 74.78125 172.707031 73.980469 174.472656 73.660156 C 175.902344 73.40625 178.007812 73.355469 178.890625 74.765625 C 178.910156 74.800781 178.917969 74.835938 178.929688 74.875 C 178.980469 74.933594 179.023438 75.003906 179.054688 75.101562 C 179.339844 76.003906 179.054688 76.878906 178.5625 77.652344 Z M 178.566406 77.652344 " fill-opacity="1" fill-rule="nonzero"/><path fill="#ffffff" d="M 177.964844 75.492188 C 177.964844 75.492188 177.953125 75.488281 177.953125 75.484375 C 177.582031 74.890625 176.832031 74.75 176.140625 74.714844 C 175.28125 74.671875 174.378906 74.832031 173.566406 75.101562 C 172.101562 75.578125 170.070312 76.878906 170.867188 78.675781 C 170.878906 78.707031 170.875 78.734375 170.882812 78.765625 C 170.902344 78.789062 170.921875 78.808594 170.9375 78.832031 C 171.730469 80.496094 173.980469 79.882812 175.226562 79.144531 C 176.003906 78.679688 176.738281 78.089844 177.308594 77.375 C 177.703125 76.886719 178.15625 76.160156 177.964844 75.550781 C 177.960938 75.527344 177.964844 75.515625 177.960938 75.492188 Z M 177.964844 75.492188 " fill-opacity="1" fill-rule="nonzero"/><path fill="#ffffff" d="M 56.199219 95.835938 C 58.097656 97.929688 60.207031 99.828125 62.382812 101.628906 C 62.09375 97.375 62.769531 93.046875 64.5625 89.277344 C 64.570312 89.261719 64.585938 89.257812 64.59375 89.238281 C 60.917969 86.554688 58.019531 83.847656 55.890625 81.09375 C 54.582031 81.417969 53.253906 81.949219 52.292969 82.917969 C 50.265625 84.960938 51.011719 87.972656 52.167969 90.269531 C 53.203125 92.316406 54.664062 94.148438 56.199219 95.835938 Z M 56.199219 95.835938 " fill-opacity="1" fill-rule="nonzero"/><path fill="#ffffff" d="M 170.664062 140.660156 C 166.746094 142.261719 162.453125 142.582031 158.261719 142.554688 C 154.246094 142.523438 150.234375 142.109375 146.269531 141.464844 C 137.484375 140.042969 128.871094 137.566406 120.472656 134.625 C 112.328125 131.773438 104.339844 128.441406 96.550781 124.714844 C 90.796875 121.964844 85.089844 119.027344 79.691406 115.605469 C 76.371094 116.070312 73.085938 116.839844 69.882812 117.953125 C 69.609375 118.042969 69.375 117.964844 69.1875 117.765625 C 67.464844 115.921875 66.035156 113.824219 64.949219 111.542969 C 63.726562 108.996094 62.914062 106.171875 62.542969 103.277344 C 59.601562 100.902344 56.757812 98.359375 54.316406 95.464844 C 52.644531 93.480469 50.722656 90.898438 50.058594 88.167969 C 49.261719 88.101562 48.488281 88.277344 47.769531 88.660156 C 45.46875 89.90625 44.113281 92.566406 43.359375 94.957031 C 42.273438 98.371094 42.285156 102.101562 43.109375 105.570312 C 44.171875 110.011719 46.722656 113.996094 49.699219 117.402344 C 52.738281 120.878906 56.339844 123.832031 60.109375 126.476562 C 65.234375 130.070312 70.738281 133.105469 76.351562 135.859375 C 83.894531 139.550781 91.683594 142.738281 99.550781 145.671875 C 107.773438 148.738281 116.074219 151.644531 124.511719 154.066406 C 131.046875 155.9375 137.710938 157.535156 144.476562 158.257812 C 149.628906 158.808594 154.910156 158.832031 159.980469 157.613281 C 165.710938 156.234375 171.238281 153.042969 174.652344 148.144531 C 175.984375 146.234375 177.105469 143.890625 177.121094 141.515625 C 177.128906 139.96875 176.519531 138.558594 175.101562 137.953125 C 173.796875 139.09375 172.277344 139.996094 170.667969 140.652344 Z M 170.664062 140.660156 " fill-opacity="1" fill-rule="nonzero"/><path fill="#ffffff" d="M 163.519531 126.183594 C 162.609375 126.089844 161.683594 125.976562 160.746094 125.851562 C 159.628906 125.695312 158.480469 125.507812 157.324219 125.304688 C 152.113281 127.167969 146.527344 127.777344 141.023438 127.683594 C 135.082031 127.582031 129.167969 126.636719 123.441406 125.078125 C 120.324219 124.230469 117.257812 123.210938 114.253906 122.011719 C 111.222656 120.804688 108.304688 119.34375 105.226562 118.253906 C 97.613281 115.558594 89.503906 114.566406 81.546875 115.382812 C 81.582031 115.40625 81.609375 115.425781 81.644531 115.445312 C 87.304688 118.894531 93.253906 121.886719 99.257812 124.6875 C 106.957031 128.269531 114.839844 131.480469 122.882812 134.203125 C 131.003906 136.957031 139.328125 139.253906 147.816406 140.507812 C 151.660156 141.070312 155.550781 141.429688 159.4375 141.378906 C 163.523438 141.324219 167.734375 140.867188 171.4375 139.019531 C 174.089844 137.695312 176.363281 135.5625 177.335938 132.707031 C 178.101562 130.4375 177.890625 127.976562 176.996094 125.785156 C 173.199219 126.566406 168.730469 126.707031 163.527344 126.183594 Z M 163.519531 126.183594 " fill-opacity="1" fill-rule="nonzero"/><path fill="#ffffff" d="M 69.84375 116.730469 C 75.851562 114.691406 82.164062 113.734375 88.511719 113.90625 C 94.59375 114.074219 100.628906 115.304688 106.339844 117.402344 C 109.457031 118.546875 112.429688 120.042969 115.523438 121.242188 C 118.546875 122.414062 121.640625 123.417969 124.789062 124.222656 C 134.414062 126.683594 145.214844 127.71875 154.902344 124.851562 C 141.949219 122.28125 126.867188 117.074219 113.3125 112.078125 C 96.625 105.933594 77.949219 98.523438 65.953125 90.222656 C 65.816406 90.132812 65.699219 90.039062 65.566406 89.945312 C 64.828125 91.539062 64.3125 93.21875 63.992188 94.949219 C 62.546875 102.648438 64.574219 110.890625 69.84375 116.734375 Z M 69.84375 116.730469 " fill-opacity="1" fill-rule="nonzero"/><path fill="#ffffff" d="M 161.953125 55.84375 C 162.570312 57.160156 164.140625 59.007812 165.726562 58.046875 C 165.757812 58.03125 165.789062 58.023438 165.824219 58.007812 C 165.84375 57.992188 165.855469 57.972656 165.875 57.957031 C 167.5 56.910156 166.617188 54.761719 165.652344 53.535156 C 165.09375 52.824219 164.40625 52.164062 163.625 51.707031 C 163.328125 51.53125 162.964844 51.363281 162.65625 51.292969 C 162.300781 51.21875 162.046875 51.226562 161.75 51.363281 C 161.742188 51.363281 161.734375 51.363281 161.722656 51.367188 C 161.710938 51.375 161.707031 51.390625 161.699219 51.402344 C 161.222656 51.789062 161.15625 52.582031 161.222656 53.253906 C 161.304688 54.152344 161.574219 55.027344 161.960938 55.84375 Z M 161.953125 55.84375 " fill-opacity="1" fill-rule="nonzero"/><path fill="#ffffff" d="M 108.273438 38.058594 C 108.714844 38.570312 109.40625 39.140625 110.140625 39.3125 C 110.714844 39.441406 111.230469 39.3125 111.691406 38.960938 C 111.714844 38.941406 111.742188 38.941406 111.769531 38.921875 C 111.789062 38.902344 111.800781 38.875 111.824219 38.851562 C 112.324219 38.449219 112.582031 37.878906 112.515625 37.203125 C 112.371094 35.761719 111.292969 34.570312 110.195312 33.726562 C 109.644531 33.304688 109.042969 32.9375 108.382812 32.722656 C 108.261719 32.683594 108.144531 32.652344 108.003906 32.632812 C 107.933594 32.617188 107.863281 32.609375 107.796875 32.605469 C 107.773438 32.605469 107.621094 32.59375 107.6875 32.597656 C 107.613281 32.597656 107.535156 32.601562 107.460938 32.613281 C 107.433594 32.613281 107.269531 32.644531 107.328125 32.632812 C 107.269531 32.648438 107.210938 32.671875 107.152344 32.691406 C 107.136719 32.703125 107.011719 32.765625 107.0625 32.730469 C 107.039062 32.746094 107.019531 32.75 107 32.757812 C 106.785156 32.972656 106.679688 33.195312 106.628906 33.425781 C 106.558594 33.769531 106.5625 34.046875 106.609375 34.390625 C 106.769531 35.714844 107.417969 37.0625 108.28125 38.070312 Z M 108.273438 38.058594 " fill-opacity="1" fill-rule="nonzero"/><path fill="#ffffff" d="M 125.492188 38.59375 C 125.503906 38.621094 125.527344 38.636719 125.535156 38.667969 C 126.167969 40.441406 128.394531 40.113281 129.769531 39.492188 C 130.589844 39.121094 131.390625 38.605469 132.027344 37.964844 C 132.515625 37.472656 133.011719 36.824219 132.867188 36.109375 C 132.867188 36.097656 132.867188 36.09375 132.867188 36.089844 C 132.859375 36.078125 132.847656 36.066406 132.835938 36.050781 C 132.554688 35.46875 131.753906 35.261719 131.140625 35.175781 C 130.269531 35.050781 129.367188 35.117188 128.507812 35.296875 C 127.074219 35.601562 124.890625 36.699219 125.472656 38.503906 C 125.484375 38.53125 125.476562 38.5625 125.484375 38.59375 Z M 125.492188 38.59375 " fill-opacity="1" fill-rule="nonzero"/><path fill="#ffffff" d="M 145.527344 48.214844 C 145.515625 48.183594 145.496094 48.167969 145.488281 48.132812 C 145.074219 46.386719 142.78125 46.484375 141.441406 46.914062 C 140.574219 47.199219 139.734375 47.613281 139.011719 48.175781 C 138.503906 48.574219 137.871094 49.179688 137.933594 49.886719 C 137.933594 49.90625 137.929688 49.917969 137.929688 49.933594 C 137.929688 49.941406 137.9375 49.945312 137.941406 49.953125 C 138.171875 50.601562 138.890625 50.898438 139.515625 51.066406 C 140.371094 51.292969 141.289062 51.328125 142.167969 51.242188 C 143.71875 51.082031 145.921875 50.230469 145.527344 48.308594 C 145.519531 48.273438 145.527344 48.25 145.527344 48.21875 Z M 145.527344 48.214844 " fill-opacity="1" fill-rule="nonzero"/><path fill="#ffffff" d="M 153.585938 67.039062 C 152.949219 66.378906 152.148438 65.847656 151.320312 65.464844 C 149.96875 64.839844 147.816406 64.503906 147.160156 66.222656 C 147.144531 66.253906 147.125 66.269531 147.109375 66.296875 C 147.105469 66.328125 147.109375 66.351562 147.097656 66.382812 C 146.480469 68.144531 148.5625 69.308594 149.980469 69.652344 C 150.832031 69.859375 151.730469 69.960938 152.609375 69.863281 C 153.222656 69.796875 154.078125 69.636719 154.394531 69.027344 C 154.402344 69.011719 154.417969 69 154.425781 68.988281 C 154.425781 68.988281 154.425781 68.980469 154.425781 68.976562 C 154.59375 68.226562 154.082031 67.546875 153.585938 67.039062 Z M 153.585938 67.039062 " fill-opacity="1" fill-rule="nonzero"/><path fill="#000000" d="M 167.890625 55.71875 C 167.816406 55.136719 167.636719 54.554688 167.371094 54.03125 C 166.617188 52.550781 165.292969 51.203125 163.808594 50.46875 C 163.035156 50.089844 162.105469 49.898438 161.296875 50.273438 C 161.242188 50.296875 161.210938 50.332031 161.171875 50.359375 C 161.109375 50.382812 161.042969 50.410156 160.980469 50.460938 C 160.972656 50.46875 160.96875 50.480469 160.960938 50.488281 C 154.617188 46.171875 147.539062 42.546875 139.894531 39.726562 C 137.828125 38.964844 135.78125 38.277344 133.730469 37.648438 C 134.003906 37.128906 134.164062 36.546875 134.046875 35.953125 C 134.039062 35.910156 134.015625 35.878906 134 35.839844 C 134 35.765625 133.976562 35.683594 133.9375 35.601562 C 133.179688 34.050781 131.160156 33.863281 129.632812 33.957031 C 128.214844 34.050781 126.605469 34.472656 125.488281 35.433594 C 120.738281 34.351562 116.042969 33.632812 111.539062 33.304688 C 110.757812 32.585938 109.855469 31.988281 108.917969 31.664062 C 108.050781 31.363281 107.148438 31.300781 106.339844 31.785156 C 106.300781 31.8125 106.277344 31.851562 106.246094 31.886719 C 106.179688 31.921875 106.117188 31.96875 106.0625 32.027344 C 105.769531 32.324219 105.582031 32.675781 105.476562 33.0625 C 76.617188 32.957031 58.15625 47.921875 52.644531 62.886719 C 50.441406 68.878906 51.261719 74.570312 55.128906 80.085938 C 52.671875 80.820312 50.402344 82.339844 49.910156 85.050781 C 49.792969 85.6875 49.78125 86.332031 49.84375 86.972656 C 47.832031 86.929688 46.023438 88.191406 44.765625 89.730469 C 42.800781 92.125 41.792969 95.277344 41.457031 98.324219 C 40.792969 104.398438 42.890625 110.230469 46.371094 115.128906 C 48.925781 118.726562 52.136719 121.835938 55.574219 124.585938 C 60.230469 128.316406 65.355469 131.441406 70.601562 134.261719 C 77.746094 138.09375 85.195312 141.359375 92.726562 144.339844 C 101.550781 147.835938 110.519531 151.039062 119.582031 153.839844 C 126.679688 156.035156 133.894531 157.984375 141.253906 159.058594 C 146.816406 159.875 152.5625 160.203125 158.128906 159.222656 C 163.992188 158.1875 169.636719 155.542969 173.742188 151.148438 C 175.65625 149.101562 177.246094 146.625 177.960938 143.890625 C 178.445312 142.03125 178.523438 139.765625 177.289062 138.160156 C 176.945312 137.710938 176.5 137.351562 176.003906 137.082031 C 176.699219 136.339844 177.316406 135.519531 177.796875 134.597656 C 179.054688 132.195312 179.285156 129.371094 178.570312 126.765625 C 178.457031 126.34375 178.3125 125.9375 178.15625 125.535156 C 184.761719 123.867188 189.117188 120.046875 191.335938 114 C 196.738281 99.28125 190.410156 74.5625 167.886719 55.722656 Z M 161.6875 51.402344 C 161.6875 51.402344 161.707031 51.382812 161.714844 51.367188 C 161.722656 51.367188 161.734375 51.367188 161.742188 51.363281 C 162.039062 51.226562 162.289062 51.21875 162.644531 51.292969 C 162.960938 51.359375 163.320312 51.53125 163.617188 51.707031 C 164.398438 52.164062 165.085938 52.820312 165.644531 53.535156 C 166.609375 54.761719 167.496094 56.910156 165.867188 57.957031 C 165.84375 57.972656 165.832031 57.992188 165.816406 58.007812 C 165.785156 58.023438 165.75 58.03125 165.71875 58.046875 C 164.132812 59.007812 162.566406 57.164062 161.941406 55.84375 C 161.558594 55.027344 161.285156 54.15625 161.203125 53.253906 C 161.144531 52.578125 161.203125 51.789062 161.679688 51.402344 Z M 128.511719 35.296875 C 129.371094 35.117188 130.273438 35.046875 131.144531 35.175781 C 131.757812 35.261719 132.558594 35.46875 132.84375 36.050781 C 132.851562 36.066406 132.863281 36.078125 132.871094 36.089844 C 132.871094 36.097656 132.871094 36.101562 132.871094 36.109375 C 133.015625 36.824219 132.519531 37.472656 132.035156 37.964844 C 131.394531 38.605469 130.59375 39.121094 129.773438 39.492188 C 128.398438 40.113281 126.171875 40.441406 125.539062 38.667969 C 125.527344 38.636719 125.507812 38.621094 125.496094 38.59375 C 125.492188 38.5625 125.496094 38.535156 125.488281 38.503906 C 124.90625 36.699219 127.082031 35.59375 128.519531 35.296875 Z M 106.988281 32.753906 C 107.011719 32.746094 107.03125 32.742188 107.050781 32.726562 C 106.992188 32.761719 107.121094 32.695312 107.140625 32.6875 C 107.199219 32.667969 107.257812 32.640625 107.316406 32.628906 C 107.253906 32.644531 107.421875 32.613281 107.445312 32.609375 C 107.519531 32.601562 107.601562 32.59375 107.675781 32.59375 C 107.613281 32.59375 107.765625 32.601562 107.785156 32.601562 C 107.851562 32.609375 107.921875 32.617188 107.988281 32.628906 C 108.132812 32.652344 108.25 32.679688 108.367188 32.71875 C 109.035156 32.933594 109.632812 33.300781 110.183594 33.722656 C 111.28125 34.566406 112.359375 35.757812 112.503906 37.199219 C 112.574219 37.875 112.316406 38.445312 111.8125 38.847656 C 111.785156 38.871094 111.777344 38.894531 111.757812 38.917969 C 111.730469 38.929688 111.703125 38.933594 111.675781 38.957031 C 111.222656 39.304688 110.707031 39.441406 110.125 39.308594 C 109.390625 39.136719 108.703125 38.570312 108.261719 38.054688 C 107.394531 37.046875 106.746094 35.699219 106.585938 34.378906 C 106.542969 34.03125 106.539062 33.757812 106.609375 33.410156 C 106.652344 33.183594 106.765625 32.960938 106.980469 32.746094 Z M 52.289062 82.917969 C 53.25 81.945312 54.578125 81.414062 55.886719 81.09375 C 58.015625 83.847656 60.914062 86.554688 64.589844 89.238281 C 64.582031 89.253906 64.566406 89.261719 64.558594 89.277344 C 62.761719 93.042969 62.085938 97.367188 62.378906 101.628906 C 60.195312 99.828125 58.089844 97.933594 56.195312 95.835938 C 54.660156 94.148438 53.195312 92.316406 52.164062 90.269531 C 51.007812 87.980469 50.257812 84.960938 52.289062 82.917969 Z M 177.117188 141.519531 C 177.105469 143.898438 175.980469 146.242188 174.648438 148.148438 C 171.234375 153.050781 165.707031 156.242188 159.976562 157.621094 C 154.910156 158.839844 149.628906 158.8125 144.472656 158.261719 C 137.703125 157.539062 131.042969 155.941406 124.507812 154.070312 C 116.070312 151.648438 107.769531 148.742188 99.546875 145.675781 C 91.679688 142.742188 83.890625 139.558594 76.347656 135.863281 C 70.734375 133.109375 65.230469 130.074219 60.105469 126.480469 C 56.332031 123.835938 52.738281 120.882812 49.695312 117.40625 C 46.71875 114 44.167969 110.015625 43.105469 105.574219 C 42.28125 102.105469 42.269531 98.375 43.355469 94.960938 C 44.109375 92.570312 45.464844 89.90625 47.765625 88.667969 C 48.484375 88.277344 49.257812 88.105469 50.054688 88.171875 C 50.71875 90.898438 52.640625 93.484375 54.308594 95.46875 C 56.753906 98.367188 59.597656 100.910156 62.539062 103.285156 C 62.910156 106.175781 63.722656 109 64.941406 111.546875 C 66.03125 113.828125 67.460938 115.921875 69.183594 117.769531 C 69.375 117.976562 69.609375 118.054688 69.875 117.957031 C 73.074219 116.839844 76.367188 116.070312 79.6875 115.609375 C 85.085938 119.027344 90.792969 121.96875 96.546875 124.722656 C 104.335938 128.445312 112.324219 131.773438 120.46875 134.628906 C 128.863281 137.566406 137.480469 140.046875 146.265625 141.46875 C 150.230469 142.113281 154.242188 142.53125 158.257812 142.558594 C 162.449219 142.589844 166.746094 142.265625 170.660156 140.664062 C 172.269531 140.007812 173.789062 139.105469 175.09375 137.96875 C 176.511719 138.570312 177.121094 139.980469 177.109375 141.527344 Z M 63.984375 94.9375 C 64.308594 93.214844 64.824219 91.527344 65.5625 89.9375 C 65.695312 90.027344 65.816406 90.121094 65.949219 90.214844 C 77.945312 98.515625 96.617188 105.921875 113.308594 112.070312 C 126.859375 117.0625 141.945312 122.273438 154.898438 124.84375 C 145.210938 127.710938 134.410156 126.671875 124.785156 124.214844 C 121.640625 123.40625 118.546875 122.40625 115.519531 121.230469 C 112.425781 120.03125 109.453125 118.539062 106.335938 117.394531 C 100.625 115.296875 94.589844 114.070312 88.507812 113.898438 C 82.164062 113.722656 75.847656 114.6875 69.835938 116.722656 C 64.570312 110.878906 62.542969 102.636719 63.984375 94.933594 Z M 177.324219 132.703125 C 176.355469 135.554688 174.078125 137.6875 171.429688 139.015625 C 167.730469 140.863281 163.515625 141.320312 159.429688 141.375 C 155.542969 141.425781 151.65625 141.066406 147.808594 140.503906 C 139.320312 139.25 130.992188 136.953125 122.875 134.199219 C 114.832031 131.472656 106.949219 128.261719 99.25 124.679688 C 93.242188 121.886719 87.296875 118.894531 81.636719 115.441406 C 81.601562 115.417969 81.570312 115.402344 81.535156 115.378906 C 89.496094 114.558594 97.609375 115.554688 105.21875 118.25 C 108.300781 119.339844 111.21875 120.796875 114.246094 122.007812 C 117.25 123.203125 120.3125 124.226562 123.433594 125.074219 C 129.15625 126.632812 135.074219 127.578125 141.015625 127.679688 C 146.523438 127.773438 152.105469 127.164062 157.316406 125.296875 C 158.472656 125.5 159.617188 125.691406 160.738281 125.847656 C 161.675781 125.976562 162.605469 126.085938 163.511719 126.179688 C 168.710938 126.703125 173.1875 126.5625 176.980469 125.78125 C 177.875 127.972656 178.089844 130.433594 177.316406 132.703125 Z M 190.230469 113.585938 C 186.875 122.738281 178.171875 126.472656 163.632812 124.996094 C 149.269531 123.554688 130.335938 117.082031 113.714844 110.957031 C 97.097656 104.832031 78.507812 97.464844 66.621094 89.238281 C 54.601562 80.921875 50.394531 72.433594 53.753906 63.285156 C 59.117188 48.71875 77.144531 34.160156 105.382812 34.234375 C 105.445312 35.074219 105.730469 35.9375 106.023438 36.605469 C 106.738281 38.265625 107.988281 39.957031 109.820312 40.4375 C 110.730469 40.679688 111.664062 40.464844 112.402344 39.898438 C 112.429688 39.875 112.441406 39.855469 112.460938 39.832031 C 112.484375 39.816406 112.511719 39.8125 112.539062 39.792969 C 113.183594 39.277344 113.625 38.542969 113.691406 37.707031 C 113.773438 36.660156 113.371094 35.632812 112.8125 34.769531 C 112.773438 34.707031 112.722656 34.652344 112.679688 34.597656 C 116.558594 34.9375 120.566406 35.558594 124.628906 36.460938 C 124.199219 37.238281 124.109375 38.097656 124.390625 38.957031 C 124.398438 38.988281 124.421875 39.003906 124.433594 39.03125 C 124.4375 39.0625 124.433594 39.089844 124.445312 39.121094 C 125.101562 40.953125 127.082031 41.410156 128.820312 41.046875 C 130.363281 40.726562 131.902344 39.8125 132.984375 38.636719 C 135.09375 39.28125 137.273438 40.011719 139.480469 40.832031 C 147.019531 43.613281 154.003906 47.183594 160.253906 51.4375 C 159.796875 52.546875 160.054688 53.972656 160.386719 55.0625 C 160.902344 56.757812 161.980469 58.628906 163.726562 59.277344 C 164.65625 59.625 165.597656 59.496094 166.433594 58.988281 C 166.457031 58.976562 166.46875 58.949219 166.488281 58.933594 C 166.519531 58.917969 166.554688 58.914062 166.582031 58.894531 C 167.246094 58.464844 167.632812 57.867188 167.8125 57.207031 C 189.355469 75.621094 195.433594 99.40625 190.230469 113.585938 Z M 190.230469 113.585938 " fill-opacity="1" fill-rule="nonzero"/><path fill="#000000" d="M 178.9375 74.875 C 178.925781 74.839844 178.921875 74.804688 178.898438 74.765625 C 178.015625 73.355469 175.90625 73.40625 174.480469 73.660156 C 172.714844 73.972656 170.808594 74.777344 169.890625 76.417969 C 169.417969 77.257812 169.390625 78.246094 169.777344 79.128906 C 169.792969 79.15625 169.8125 79.175781 169.832031 79.203125 C 169.839844 79.230469 169.839844 79.257812 169.851562 79.289062 C 170.199219 80.011719 170.769531 80.601562 171.535156 80.875 C 172.515625 81.21875 173.585938 81.082031 174.554688 80.765625 C 176.109375 80.257812 177.695312 79.035156 178.574219 77.652344 C 179.070312 76.871094 179.351562 76.003906 179.070312 75.101562 C 179.039062 75.007812 178.996094 74.933594 178.941406 74.875 Z M 177.316406 77.375 C 176.75 78.085938 176.015625 78.679688 175.238281 79.144531 C 173.988281 79.890625 171.742188 80.5 170.945312 78.832031 C 170.933594 78.804688 170.910156 78.785156 170.894531 78.765625 C 170.882812 78.734375 170.886719 78.707031 170.875 78.675781 C 170.078125 76.882812 172.113281 75.582031 173.574219 75.101562 C 174.394531 74.832031 175.289062 74.671875 176.148438 74.714844 C 176.839844 74.75 177.59375 74.890625 177.964844 75.484375 C 177.964844 75.488281 177.972656 75.488281 177.972656 75.492188 C 177.972656 75.511719 177.972656 75.527344 177.976562 75.550781 C 178.167969 76.160156 177.710938 76.886719 177.320312 77.375 Z M 177.316406 77.375 " fill-opacity="1" fill-rule="nonzero"/><path fill="#000000" d="M 146.664062 48.066406 C 146.664062 48.035156 146.667969 48.011719 146.664062 47.980469 C 146.074219 45.480469 143.320312 45.128906 141.191406 45.765625 C 139.375 46.304688 136.566406 47.777344 136.761719 50.046875 C 136.769531 50.132812 136.796875 50.203125 136.828125 50.269531 C 136.832031 50.316406 136.828125 50.355469 136.847656 50.410156 C 137.414062 51.976562 139.441406 52.398438 140.898438 52.453125 C 142.710938 52.523438 144.746094 52.164062 146.011719 50.746094 C 146.644531 50.042969 146.890625 49.074219 146.703125 48.152344 C 146.695312 48.121094 146.675781 48.097656 146.667969 48.066406 Z M 142.167969 51.242188 C 141.289062 51.328125 140.371094 51.292969 139.515625 51.066406 C 138.890625 50.898438 138.171875 50.601562 137.941406 49.953125 C 137.941406 49.945312 137.933594 49.941406 137.929688 49.933594 C 137.929688 49.914062 137.933594 49.90625 137.933594 49.886719 C 137.871094 49.179688 138.503906 48.574219 139.011719 48.175781 C 139.734375 47.609375 140.574219 47.195312 141.441406 46.914062 C 142.78125 46.484375 145.078125 46.386719 145.488281 48.132812 C 145.496094 48.164062 145.515625 48.183594 145.527344 48.214844 C 145.527344 48.246094 145.519531 48.273438 145.527344 48.304688 C 145.921875 50.230469 143.71875 51.082031 142.167969 51.238281 Z M 142.167969 51.242188 " fill-opacity="1" fill-rule="nonzero"/><path fill="#000000" d="M 154.574219 66.375 C 153.769531 65.507812 152.765625 64.816406 151.691406 64.332031 C 149.753906 63.464844 146.960938 63.441406 146.074219 65.75 C 146.0625 65.78125 146.066406 65.804688 146.0625 65.835938 C 146.046875 65.863281 146.027344 65.878906 146.019531 65.910156 C 144.625 69.894531 150.441406 71.578125 153.34375 70.9375 C 154.234375 70.738281 155.046875 70.324219 155.484375 69.488281 C 155.527344 69.398438 155.550781 69.316406 155.554688 69.242188 C 155.570312 69.203125 155.59375 69.175781 155.601562 69.132812 C 155.832031 68.105469 155.257812 67.097656 154.578125 66.371094 Z M 154.390625 69.027344 C 154.078125 69.632812 153.21875 69.796875 152.605469 69.863281 C 151.730469 69.957031 150.828125 69.859375 149.976562 69.652344 C 148.558594 69.3125 146.476562 68.144531 147.09375 66.382812 C 147.105469 66.351562 147.097656 66.324219 147.105469 66.296875 C 147.117188 66.269531 147.140625 66.253906 147.152344 66.222656 C 147.8125 64.511719 149.964844 64.839844 151.3125 65.464844 C 152.144531 65.847656 152.945312 66.382812 153.582031 67.039062 C 154.078125 67.546875 154.585938 68.230469 154.421875 68.976562 C 154.421875 68.976562 154.421875 68.984375 154.421875 68.988281 C 154.414062 69.007812 154.398438 69.011719 154.390625 69.027344 Z M 154.390625 69.027344 " fill-opacity="1" fill-rule="nonzero"/><path fill="#ffffff" d="M 97.613281 47.367188 C 99.636719 48.25 100.792969 50.535156 100.964844 53.398438 C 99.117188 52.335938 96.828125 52.414062 94.527344 53.667969 C 94.328125 53.777344 94.113281 53.898438 94.113281 53.898438 L 93.804688 54.078125 L 93.929688 57.003906 L 91.6875 55.800781 L 91.378906 56.117188 C 91.378906 56.117188 91.042969 56.460938 90.878906 56.640625 C 89.703125 57.921875 88.789062 59.332031 87.828125 61.347656 C 87.402344 62.246094 87.050781 63.230469 86.75 64.257812 C 86.167969 64.058594 85.578125 63.878906 84.988281 63.71875 C 84.84375 63.667969 84.714844 63.625 84.605469 63.585938 C 84.628906 62.359375 84.851562 58.585938 86.550781 55.023438 C 89.3125 49.226562 94.171875 45.859375 97.613281 47.363281 Z M 97.613281 47.367188 " fill-opacity="1" fill-rule="nonzero"/><path fill="#ffffff" d="M 119.273438 64.46875 C 119.070312 64.578125 118.863281 64.703125 118.863281 64.703125 L 118.550781 64.882812 L 118.679688 67.804688 L 116.441406 66.605469 L 116.128906 66.921875 C 116.128906 66.921875 115.792969 67.261719 115.632812 67.441406 C 114.457031 68.726562 113.542969 70.136719 112.582031 72.152344 C 112.15625 73.046875 111.804688 74.03125 111.503906 75.058594 C 110.921875 74.863281 110.332031 74.683594 109.742188 74.523438 C 109.601562 74.472656 109.464844 74.429688 109.355469 74.390625 C 109.382812 73.164062 109.605469 69.390625 111.300781 65.828125 C 114.0625 60.03125 118.921875 56.664062 122.367188 58.167969 C 124.390625 59.050781 125.542969 61.335938 125.71875 64.199219 C 123.871094 63.132812 121.574219 63.214844 119.277344 64.460938 Z M 119.273438 64.46875 " fill-opacity="1" fill-rule="nonzero"/><path fill="#000000" d="M 128.726562 57.65625 C 128.011719 55.363281 126.566406 53.390625 124.601562 52.019531 C 124.335938 51.835938 124.320312 51.425781 124.511719 51.1875 C 124.726562 50.925781 125.082031 50.917969 125.34375 51.101562 C 127.457031 52.570312 129.058594 54.761719 129.820312 57.222656 C 130.050781 57.945312 128.949219 58.382812 128.722656 57.65625 Z M 128.726562 57.65625 " fill-opacity="1" fill-rule="nonzero"/><path fill="#000000" d="M 99.789062 41.191406 C 97.453125 40.679688 95.023438 40.960938 92.863281 41.996094 C 92.175781 42.324219 91.75 41.21875 92.429688 40.890625 C 94.75 39.78125 97.4375 39.464844 99.957031 40.015625 C 100.265625 40.085938 100.507812 40.355469 100.460938 40.6875 C 100.414062 40.984375 100.105469 41.253906 99.789062 41.191406 Z M 99.789062 41.191406 " fill-opacity="1" fill-rule="nonzero"/><path fill="#000000" d="M 85.917969 73.1875 C 86.8125 74.207031 87.339844 75.304688 88.5625 76 C 90.023438 76.835938 91.757812 77.109375 93.402344 77.34375 C 94.152344 77.453125 93.988281 78.625 93.234375 78.519531 C 90.96875 78.195312 88.464844 77.742188 86.738281 76.109375 C 85.898438 75.320312 85.421875 74.210938 84.539062 73.480469 C 83.597656 72.699219 82.261719 72.386719 81.125 72.898438 C 78.933594 73.886719 77.394531 77.066406 77.828125 79.40625 C 78.015625 80.421875 78.613281 81.394531 79.464844 81.980469 C 80.554688 82.730469 82.171875 82.796875 83.4375 82.949219 C 84.40625 83.066406 85.363281 83.179688 86.304688 83.457031 C 87.667969 83.851562 88.925781 84.507812 90.140625 85.222656 C 90.789062 85.601562 90.324219 86.691406 89.667969 86.304688 C 88.457031 85.597656 87.195312 84.914062 85.832031 84.542969 C 84.832031 84.269531 83.796875 84.191406 82.773438 84.0625 C 81.425781 83.886719 79.855469 83.71875 78.71875 82.902344 C 77.792969 82.234375 77.085938 81.210938 76.777344 80.117188 C 76.074219 77.628906 77.230469 74.777344 78.988281 72.992188 C 81 70.957031 84 71.007812 85.910156 73.1875 Z M 85.917969 73.1875 " fill-opacity="1" fill-rule="nonzero"/><path fill="#000000" d="M 79.898438 76.761719 C 80.679688 74.96875 82.234375 73.917969 83.375 74.414062 C 84.515625 74.910156 84.804688 76.765625 84.027344 78.5625 C 83.246094 80.355469 81.6875 81.40625 80.546875 80.914062 C 79.40625 80.414062 79.121094 78.558594 79.898438 76.761719 Z M 79.898438 76.761719 " fill-opacity="1" fill-rule="nonzero"/><path fill="#000000" d="M 104.554688 74.742188 C 106.152344 74.921875 107.773438 75.222656 109.371094 75.652344 C 109.945312 75.847656 110.757812 76.128906 111.578125 76.425781 L 111.65625 76.457031 C 112.03125 76.59375 112.402344 76.734375 112.753906 76.867188 C 112.796875 76.886719 112.839844 76.902344 112.882812 76.921875 C 113.003906 76.96875 113.125 77.015625 113.238281 77.0625 C 113.28125 77.078125 113.324219 77.097656 113.367188 77.113281 C 113.515625 77.175781 113.65625 77.230469 113.789062 77.289062 C 114.289062 77.507812 114.894531 77.796875 115.515625 78.101562 C 117.660156 79.292969 119.609375 80.804688 121.195312 82.683594 C 121.683594 83.257812 122.640625 82.5625 122.148438 81.984375 C 121.464844 81.175781 120.714844 80.4375 119.914062 79.75 C 120.613281 79.105469 123.511719 76.265625 125.382812 71.96875 C 125.589844 71.484375 125.773438 70.988281 125.945312 70.488281 C 125.988281 70.359375 126.027344 70.226562 126.074219 70.097656 C 126.199219 69.699219 126.308594 69.300781 126.410156 68.894531 C 126.433594 68.785156 126.464844 68.675781 126.492188 68.5625 C 126.601562 68.074219 126.6875 67.585938 126.753906 67.101562 C 126.773438 66.984375 126.777344 66.863281 126.789062 66.746094 C 126.828125 66.386719 126.855469 66.027344 126.871094 65.675781 C 126.875 65.574219 126.894531 65.46875 126.894531 65.367188 L 126.902344 65.097656 L 126.890625 65.082031 C 126.902344 61.347656 125.476562 58.246094 122.828125 57.089844 C 118.734375 55.300781 113.316406 58.839844 110.226562 65.324219 C 108.503906 68.9375 108.214844 72.640625 108.167969 74.144531 C 107.019531 73.890625 105.859375 73.703125 104.710938 73.570312 C 103.957031 73.488281 103.785156 74.65625 104.546875 74.746094 Z M 109.351562 74.394531 C 109.378906 73.167969 109.601562 69.394531 111.296875 65.832031 C 114.058594 60.035156 118.917969 56.667969 122.363281 58.171875 C 124.386719 59.054688 125.539062 61.339844 125.714844 64.203125 C 123.867188 63.136719 121.570312 63.21875 119.273438 64.464844 C 119.070312 64.574219 118.863281 64.699219 118.863281 64.699219 L 118.550781 64.878906 L 118.679688 67.800781 L 116.441406 66.601562 L 116.128906 66.917969 C 116.128906 66.917969 115.792969 67.257812 115.632812 67.4375 C 114.457031 68.722656 113.542969 70.132812 112.582031 72.148438 C 112.15625 73.042969 111.804688 74.027344 111.503906 75.054688 C 110.921875 74.859375 110.332031 74.679688 109.742188 74.515625 C 109.601562 74.46875 109.464844 74.425781 109.355469 74.386719 Z M 109.351562 74.394531 " fill-opacity="1" fill-rule="nonzero"/><path fill="#000000" d="M 79.804688 63.9375 C 81.40625 64.117188 83.027344 64.417969 84.621094 64.847656 C 85.179688 65.039062 85.96875 65.308594 86.761719 65.59375 L 86.90625 65.648438 C 87.28125 65.785156 87.65625 65.925781 88.003906 66.058594 C 88.046875 66.078125 88.089844 66.09375 88.136719 66.113281 C 88.257812 66.160156 88.375 66.207031 88.492188 66.253906 C 88.539062 66.269531 88.582031 66.289062 88.625 66.304688 C 88.773438 66.367188 88.914062 66.421875 89.042969 66.480469 C 89.546875 66.699219 90.148438 66.988281 90.765625 67.292969 C 91.140625 67.503906 91.511719 67.71875 91.878906 67.949219 C 90.21875 69.464844 89.351562 71.777344 90.101562 73.996094 C 90.324219 74.65625 91.253906 74.347656 91.226562 73.734375 C 91.226562 73.675781 91.226562 73.625 91.203125 73.5625 C 90.800781 72.375 91.003906 71.105469 91.644531 70.042969 C 92.746094 68.214844 94.957031 67.035156 97.074219 67.613281 C 99.234375 68.203125 101.3125 70.507812 100.703125 72.867188 C 100.691406 72.914062 100.699219 72.953125 100.699219 73 C 100.675781 73.617188 101.699219 73.71875 101.875 73.039062 C 102.277344 71.480469 101.667969 69.820312 100.664062 68.621094 C 99.8125 67.605469 98.664062 66.871094 97.394531 66.511719 C 98.167969 65.539062 99.03125 64.316406 99.808594 62.871094 C 100.101562 62.328125 100.378906 61.757812 100.644531 61.15625 C 100.851562 60.671875 101.035156 60.175781 101.207031 59.675781 C 101.25 59.546875 101.289062 59.414062 101.332031 59.28125 C 101.460938 58.882812 101.570312 58.484375 101.667969 58.082031 C 101.695312 57.972656 101.726562 57.863281 101.753906 57.75 C 101.863281 57.261719 101.949219 56.773438 102.015625 56.289062 C 102.03125 56.171875 102.035156 56.050781 102.050781 55.933594 C 102.089844 55.574219 102.117188 55.214844 102.132812 54.863281 C 102.136719 54.761719 102.15625 54.65625 102.15625 54.554688 L 102.164062 54.285156 L 102.148438 54.269531 C 102.164062 50.535156 100.738281 47.433594 98.089844 46.277344 C 93.996094 44.492188 88.578125 48.027344 85.488281 54.511719 C 83.765625 58.121094 83.476562 61.828125 83.429688 63.332031 C 82.28125 63.078125 81.121094 62.890625 79.972656 62.757812 C 79.214844 62.675781 79.046875 63.84375 79.804688 63.933594 Z M 84.605469 63.589844 C 84.628906 62.363281 84.851562 58.589844 86.550781 55.027344 C 89.3125 49.230469 94.171875 45.867188 97.613281 47.367188 C 99.636719 48.25 100.792969 50.535156 100.964844 53.398438 C 99.117188 52.335938 96.828125 52.414062 94.527344 53.667969 C 94.328125 53.777344 94.113281 53.898438 94.113281 53.898438 L 93.804688 54.078125 L 93.929688 57.003906 L 91.6875 55.800781 L 91.378906 56.117188 C 91.378906 56.117188 91.042969 56.460938 90.878906 56.640625 C 89.703125 57.921875 88.789062 59.332031 87.828125 61.347656 C 87.402344 62.246094 87.050781 63.230469 86.75 64.257812 C 86.167969 64.058594 85.578125 63.878906 84.988281 63.71875 C 84.84375 63.667969 84.714844 63.625 84.605469 63.585938 Z M 84.605469 63.589844 " fill-opacity="1" fill-rule="nonzero"/><path fill="#ffffff" d="M 33.132812 51.0625 C 32.71875 49.933594 31.484375 49.390625 30.363281 49.570312 C 29.621094 49.6875 29.3125 48.539062 30.066406 48.421875 C 30.328125 48.382812 30.585938 48.371094 30.839844 48.375 C 31.703125 47.285156 32.3125 45.941406 32.707031 44.617188 C 33.171875 43.058594 33.082031 41.652344 32.828125 40.058594 C 32.613281 38.726562 32.441406 37.40625 32.683594 36.066406 C 32.898438 34.871094 33.40625 33.742188 33.984375 32.679688 C 34.609375 31.53125 35.328125 30.441406 35.9375 29.285156 C 36.503906 28.21875 37.335938 26.660156 36.726562 25.457031 C 36.152344 24.332031 34.601562 24.402344 33.566406 24.6875 C 32.609375 24.949219 31.804688 25.507812 31.101562 26.195312 C 29.0625 28.183594 27.886719 30.960938 27.113281 33.652344 C 26.90625 34.382812 25.765625 34.078125 25.972656 33.34375 C 26.28125 32.28125 26.65625 31.195312 27.113281 30.136719 C 26.757812 28.46875 26.609375 26.757812 26.40625 25.0625 C 26.257812 23.800781 26.070312 22.539062 25.933594 21.28125 C 25.816406 20.171875 25.757812 19.054688 25.5625 17.957031 C 25.261719 16.25 24.144531 13.398438 21.851562 14.457031 C 19.929688 15.34375 19.308594 18.160156 19.144531 20.070312 C 19.34375 23.191406 19.914062 26.269531 20.613281 29.3125 C 20.78125 30.054688 19.640625 30.351562 19.46875 29.609375 C 18.769531 26.589844 18.214844 23.535156 17.984375 20.441406 C 17.957031 20.363281 17.9375 20.277344 17.945312 20.175781 C 17.945312 20.140625 17.957031 20.105469 17.960938 20.070312 C 17.941406 19.824219 17.910156 19.574219 17.902344 19.320312 C 17.839844 17.957031 17.964844 16.53125 17.234375 15.328125 C 16.460938 14.046875 14.765625 13.488281 13.441406 14.269531 C 12.738281 14.6875 12.378906 15.414062 12.164062 16.078125 C 11.628906 17.757812 11.683594 19.59375 11.855469 21.324219 C 12.105469 23.820312 12.695312 26.285156 13.410156 28.699219 C 13.417969 28.730469 13.4375 28.765625 13.4375 28.796875 C 13.75 29.847656 14.078125 30.894531 14.429688 31.921875 C 14.671875 32.644531 13.527344 32.9375 13.285156 32.21875 C 12.929688 31.171875 12.589844 30.113281 12.269531 29.046875 C 11.273438 27.539062 10.378906 25.972656 9.546875 24.367188 C 8.804688 22.925781 7.515625 19.808594 5.320312 21.109375 C 4.234375 21.757812 4.144531 22.984375 4.253906 24.117188 C 4.390625 25.519531 4.835938 26.898438 5.304688 28.21875 C 6.246094 30.871094 7.507812 33.382812 8.742188 35.910156 C 9.980469 38.4375 10.589844 41.261719 11.605469 43.878906 C 12.640625 46.5625 14.128906 50.027344 16.945312 51.265625 C 17.1875 51.144531 17.425781 51.035156 17.664062 50.960938 C 18.386719 50.722656 18.679688 51.871094 17.960938 52.109375 C 17.757812 52.171875 17.550781 52.269531 17.339844 52.386719 C 17.285156 52.445312 17.222656 52.484375 17.148438 52.511719 C 16.511719 52.933594 16.011719 53.59375 16.328125 54.339844 C 16.613281 55.007812 17.269531 55.4375 17.914062 55.6875 C 19.855469 56.441406 22.058594 56.011719 24.019531 55.601562 C 25.519531 55.285156 27.015625 54.941406 28.480469 54.484375 C 29.929688 54.03125 31.726562 53.492188 32.792969 52.332031 C 33.125 51.972656 33.316406 51.550781 33.136719 51.070312 Z M 22.597656 48.488281 C 20.679688 45.15625 20.980469 40.875 23.304688 37.832031 C 23.496094 37.578125 23.9375 37.621094 24.140625 37.828125 C 24.382812 38.078125 24.339844 38.410156 24.144531 38.664062 C 22.144531 41.285156 21.988281 45.070312 23.617188 47.902344 C 24 48.5625 22.976562 49.148438 22.597656 48.492188 Z M 22.597656 48.488281 " fill-opacity="1" fill-rule="nonzero"/><g clip-path="url(#cb253f3b49)"><path fill="#000000" d="M 33.972656 52.722656 C 34.484375 51.960938 34.492188 51.078125 34.058594 50.277344 C 33.609375 49.449219 32.925781 48.898438 32.132812 48.609375 C 33.578125 46.546875 34.460938 43.863281 34.199219 41.390625 C 34.023438 39.761719 33.542969 38.125 33.800781 36.476562 C 34.039062 34.972656 34.785156 33.617188 35.546875 32.320312 C 36.734375 30.292969 39.230469 26.992188 37.589844 24.601562 C 36.117188 22.453125 32.808594 23.316406 31.085938 24.632812 C 29.796875 25.617188 28.792969 26.914062 27.984375 28.339844 C 27.832031 27.320312 27.722656 26.292969 27.605469 25.273438 C 27.351562 23.109375 27.125 20.941406 26.863281 18.785156 C 26.648438 17.015625 26.285156 14.890625 24.746094 13.761719 C 23.355469 12.746094 21.574219 12.925781 20.332031 14.074219 C 19.675781 14.679688 19.191406 15.445312 18.832031 16.273438 C 18.707031 15.671875 18.5 15.097656 18.148438 14.566406 C 16.492188 12.050781 12.621094 12.144531 11.332031 14.949219 C 10.632812 16.472656 10.507812 18.222656 10.570312 19.882812 C 10.632812 21.589844 10.875 23.292969 11.226562 24.976562 C 11.042969 24.640625 10.855469 24.3125 10.679688 23.980469 C 9.769531 22.238281 8.988281 20.078125 6.792969 19.703125 C 5.253906 19.441406 3.738281 20.425781 3.246094 21.894531 C 2.839844 23.109375 3.0625 24.511719 3.332031 25.726562 C 4.054688 28.964844 5.527344 32.050781 6.980469 35.011719 C 7.523438 36.121094 8.0625 37.203125 8.464844 38.371094 C 9.027344 39.996094 9.523438 41.636719 10.109375 43.25 C 11.265625 46.425781 12.796875 50.25 15.867188 52.027344 C 15.40625 52.476562 15.074219 53.023438 15.027344 53.652344 C 14.960938 54.476562 15.40625 55.304688 15.988281 55.859375 C 17.894531 57.691406 21.109375 57.402344 23.464844 56.921875 C 25.25 56.5625 27.03125 56.171875 28.769531 55.628906 C 30.535156 55.074219 32.886719 54.359375 33.976562 52.730469 Z M 28.472656 54.476562 C 27.011719 54.9375 25.515625 55.28125 24.015625 55.59375 C 22.054688 56.003906 19.851562 56.433594 17.910156 55.679688 C 17.261719 55.429688 16.609375 54.992188 16.324219 54.332031 C 16.007812 53.582031 16.507812 52.929688 17.140625 52.5 C 17.214844 52.476562 17.28125 52.4375 17.335938 52.378906 C 17.539062 52.261719 17.753906 52.160156 17.957031 52.097656 C 18.675781 51.867188 18.382812 50.71875 17.65625 50.953125 C 17.421875 51.027344 17.183594 51.136719 16.941406 51.257812 C 14.121094 50.015625 12.636719 46.546875 11.601562 43.867188 C 10.585938 41.25 9.976562 38.425781 8.738281 35.902344 C 7.503906 33.375 6.242188 30.863281 5.300781 28.210938 C 4.832031 26.886719 4.390625 25.507812 4.25 24.109375 C 4.140625 22.972656 4.230469 21.75 5.316406 21.101562 C 7.511719 19.800781 8.800781 22.917969 9.542969 24.359375 C 10.375 25.964844 11.269531 27.53125 12.265625 29.039062 C 12.585938 30.105469 12.925781 31.164062 13.277344 32.210938 C 13.519531 32.929688 14.664062 32.636719 14.425781 31.914062 C 14.074219 30.886719 13.746094 29.839844 13.433594 28.789062 C 13.433594 28.757812 13.414062 28.722656 13.40625 28.691406 C 12.6875 26.273438 12.097656 23.816406 11.851562 21.316406 C 11.679688 19.585938 11.621094 17.746094 12.160156 16.070312 C 12.375 15.40625 12.730469 14.679688 13.4375 14.261719 C 14.761719 13.480469 16.457031 14.039062 17.230469 15.316406 C 17.957031 16.523438 17.835938 17.949219 17.898438 19.308594 C 17.910156 19.558594 17.941406 19.808594 17.957031 20.0625 C 17.957031 20.097656 17.945312 20.132812 17.941406 20.167969 C 17.933594 20.269531 17.949219 20.355469 17.980469 20.429688 C 18.207031 23.523438 18.765625 26.582031 19.464844 29.601562 C 19.632812 30.347656 20.777344 30.046875 20.609375 29.304688 C 19.90625 26.261719 19.339844 23.183594 19.140625 20.0625 C 19.304688 18.148438 19.925781 15.335938 21.847656 14.445312 C 24.140625 13.386719 25.257812 16.238281 25.558594 17.949219 C 25.757812 19.046875 25.8125 20.164062 25.929688 21.269531 C 26.066406 22.535156 26.253906 23.792969 26.402344 25.054688 C 26.605469 26.746094 26.753906 28.460938 27.109375 30.128906 C 26.652344 31.1875 26.277344 32.273438 25.96875 33.335938 C 25.761719 34.070312 26.902344 34.378906 27.109375 33.644531 C 27.878906 30.949219 29.058594 28.175781 31.097656 26.1875 C 31.800781 25.5 32.609375 24.941406 33.5625 24.675781 C 34.597656 24.394531 36.148438 24.316406 36.71875 25.449219 C 37.332031 26.652344 36.496094 28.214844 35.933594 29.277344 C 35.328125 30.433594 34.605469 31.523438 33.980469 32.671875 C 33.402344 33.730469 32.890625 34.863281 32.679688 36.058594 C 32.4375 37.402344 32.609375 38.722656 32.824219 40.050781 C 33.074219 41.644531 33.167969 43.050781 32.703125 44.609375 C 32.3125 45.933594 31.703125 47.273438 30.835938 48.363281 C 30.582031 48.363281 30.324219 48.371094 30.0625 48.414062 C 29.308594 48.53125 29.609375 49.679688 30.359375 49.558594 C 31.484375 49.378906 32.714844 49.921875 33.128906 51.054688 C 33.308594 51.535156 33.109375 51.953125 32.785156 52.3125 C 31.71875 53.46875 29.921875 54.011719 28.46875 54.46875 Z M 28.472656 54.476562 " fill-opacity="1" fill-rule="nonzero"/></g><path fill="#000000" d="M 23.617188 47.898438 C 21.984375 45.0625 22.144531 41.28125 24.144531 38.660156 C 24.339844 38.40625 24.382812 38.074219 24.140625 37.824219 C 23.9375 37.617188 23.496094 37.574219 23.304688 37.828125 C 20.980469 40.875 20.679688 45.15625 22.597656 48.484375 C 22.976562 49.144531 24 48.554688 23.617188 47.890625 Z M 23.617188 47.898438 " fill-opacity="1" fill-rule="nonzero"/><path fill="#000000" d="M 184.890625 168.050781 C 175.71875 160.28125 160.652344 142.574219 162.402344 125.507812 L 171.800781 126.476562 C 170.550781 138.695312 182.589844 153.714844 190.992188 160.828125 L 184.890625 168.054688 Z M 184.890625 168.050781 " fill-opacity="1" fill-rule="nonzero"/><path fill="#ffffff" d="M 194.585938 191.984375 C 195.519531 191.285156 195.984375 190.242188 196.238281 189.140625 C 196.847656 186.519531 196.667969 183.621094 196.144531 181.003906 C 196.140625 180.972656 196.132812 180.945312 196.125 180.914062 C 196.125 180.914062 196.125 180.910156 196.125 180.90625 C 196.089844 180.761719 196.113281 180.609375 196.199219 180.488281 C 196.21875 180.460938 196.238281 180.4375 196.261719 180.410156 C 196.273438 180.398438 196.289062 180.382812 196.300781 180.371094 C 196.550781 180.144531 196.976562 180.117188 197.179688 180.410156 C 198.59375 181.691406 200.023438 182.960938 201.390625 184.296875 C 202.769531 185.644531 204.070312 187.050781 205.316406 188.523438 C 206.34375 189.742188 207.429688 191.085938 208.835938 191.890625 C 209.417969 192.230469 210.035156 192.398438 210.679688 192.132812 C 211.621094 191.742188 212.480469 190.984375 212.605469 189.921875 C 212.832031 188 211.304688 186.027344 210.183594 184.617188 C 210.0625 184.488281 209.933594 184.355469 209.816406 184.230469 C 207.539062 181.859375 205.25 179.507812 202.886719 177.222656 C 202.339844 176.691406 203.199219 175.882812 203.746094 176.414062 C 206.113281 178.699219 208.402344 181.046875 210.679688 183.421875 C 210.792969 183.539062 210.902344 183.65625 211.015625 183.777344 C 211.015625 183.78125 211.023438 183.78125 211.027344 183.785156 C 211.027344 183.789062 211.035156 183.792969 211.042969 183.796875 C 211.859375 184.65625 212.699219 185.53125 213.6875 186.183594 C 214.84375 186.941406 216.492188 187.113281 217.316406 185.789062 C 217.769531 185.058594 217.765625 184.164062 217.441406 183.390625 C 216.6875 181.585938 215.226562 180.023438 213.914062 178.613281 C 211.464844 175.996094 208.726562 173.652344 205.910156 171.441406 C 205.316406 170.976562 205.9375 169.964844 206.535156 170.433594 C 207.042969 170.832031 207.539062 171.238281 208.042969 171.644531 C 208.050781 171.644531 208.054688 171.644531 208.066406 171.652344 C 210.058594 172.878906 212.171875 173.914062 214.308594 174.859375 C 215.746094 175.492188 218.484375 177.082031 219.890625 175.527344 C 220.773438 174.558594 220.296875 173.238281 219.53125 172.394531 C 218.636719 171.398438 217.453125 170.679688 216.300781 170.007812 C 213.707031 168.496094 210.898438 167.351562 208.398438 165.675781 C 206.082031 164.125 203.847656 162.464844 201.359375 161.1875 C 198.757812 159.847656 195.425781 158.605469 192.570312 159.914062 C 192.363281 160.003906 192.175781 159.972656 192.023438 159.882812 C 191.78125 159.769531 191.621094 159.527344 191.703125 159.261719 C 191.714844 159.160156 191.765625 159.066406 191.84375 158.992188 C 192.363281 158.238281 192.847656 156.871094 191.898438 156.285156 C 191.328125 155.929688 190.632812 156.097656 190.054688 156.355469 C 188.199219 157.191406 186.886719 158.878906 185.484375 160.285156 C 184.378906 161.394531 183.265625 162.488281 182.238281 163.667969 C 181.28125 164.769531 180.023438 166.148438 179.742188 167.632812 C 179.660156 168.066406 179.714844 168.441406 180.085938 168.707031 C 181.109375 169.445312 182.445312 169.085938 183.273438 168.269531 C 183.78125 167.769531 184.503906 168.488281 184.15625 169.023438 C 183.863281 171.722656 185.269531 174.441406 186.683594 176.648438 C 188.058594 178.796875 188.972656 181.125 189.691406 183.566406 C 190.371094 185.871094 190.722656 188.292969 191.472656 190.574219 C 191.699219 191.265625 192.085938 192.089844 192.8125 192.371094 C 193.433594 192.609375 194.085938 192.355469 194.59375 191.980469 Z M 194.585938 191.984375 " fill-opacity="1" fill-rule="nonzero"/><g clip-path="url(#0353e102a2)"><path fill="#000000" d="M 197.046875 190.558594 C 197.59375 189.148438 197.730469 187.550781 197.761719 186.050781 C 197.785156 184.8125 197.710938 183.570312 197.550781 182.339844 C 198.617188 183.308594 199.679688 184.273438 200.707031 185.285156 C 202.269531 186.828125 203.671875 188.46875 205.113281 190.113281 C 206.242188 191.402344 207.644531 192.996094 209.390625 193.390625 C 211.214844 193.800781 213.296875 192.246094 213.699219 190.472656 C 213.941406 189.402344 213.714844 188.332031 213.277344 187.3125 C 213.402344 187.382812 213.515625 187.476562 213.640625 187.535156 C 214.902344 188.152344 216.425781 188.171875 217.566406 187.269531 C 218.59375 186.457031 219.019531 185.058594 218.789062 183.789062 C 218.460938 182.007812 216.980469 180.339844 215.84375 179.015625 C 214.667969 177.652344 213.386719 176.375 212.066406 175.144531 C 212.566406 175.378906 213.0625 175.605469 213.566406 175.832031 C 215.320312 176.613281 217.378906 177.792969 219.363281 177.1875 C 220.855469 176.738281 221.691406 175.3125 221.503906 173.78125 C 221.351562 172.507812 220.402344 171.511719 219.453125 170.730469 C 216.765625 168.523438 213.410156 167.269531 210.417969 165.550781 C 207.808594 164.054688 205.476562 162.125 202.84375 160.660156 C 200.054688 159.113281 196.644531 157.679688 193.441406 158.40625 C 193.683594 157.640625 193.714844 156.800781 193.34375 156.121094 C 192.957031 155.417969 192.136719 154.976562 191.355469 154.914062 C 188.875 154.730469 186.648438 157.347656 185.148438 158.949219 C 183.925781 160.257812 182.605469 161.46875 181.425781 162.820312 C 180.25 164.167969 178.617188 165.949219 178.523438 167.851562 C 178.480469 168.742188 178.941406 169.484375 179.734375 169.875 C 180.789062 170.40625 181.925781 170.394531 182.917969 169.9375 C 182.957031 172.324219 184.109375 174.707031 185.304688 176.6875 C 186 177.835938 186.707031 178.933594 187.242188 180.171875 C 187.863281 181.609375 188.332031 183.109375 188.753906 184.617188 C 189.132812 185.992188 189.464844 187.378906 189.789062 188.765625 C 190.089844 190.035156 190.304688 191.410156 191.109375 192.480469 C 193.054688 195.058594 196.144531 192.871094 197.039062 190.5625 Z M 191.46875 190.582031 C 190.71875 188.300781 190.367188 185.882812 189.6875 183.574219 C 188.96875 181.132812 188.054688 178.808594 186.675781 176.65625 C 185.265625 174.453125 183.859375 171.734375 184.152344 169.03125 C 184.5 168.496094 183.777344 167.78125 183.269531 168.277344 C 182.4375 169.097656 181.105469 169.457031 180.082031 168.71875 C 179.710938 168.449219 179.65625 168.074219 179.738281 167.640625 C 180.015625 166.15625 181.28125 164.777344 182.234375 163.679688 C 183.261719 162.5 184.375 161.402344 185.480469 160.292969 C 186.886719 158.882812 188.195312 157.199219 190.050781 156.363281 C 190.628906 156.101562 191.324219 155.9375 191.894531 156.292969 C 192.84375 156.882812 192.359375 158.25 191.839844 159.003906 C 191.761719 159.082031 191.710938 159.171875 191.699219 159.269531 C 191.617188 159.535156 191.777344 159.777344 192.019531 159.890625 C 192.171875 159.984375 192.359375 160.019531 192.5625 159.921875 C 195.421875 158.613281 198.753906 159.855469 201.355469 161.195312 C 203.84375 162.472656 206.078125 164.128906 208.394531 165.683594 C 210.890625 167.359375 213.703125 168.507812 216.296875 170.015625 C 217.441406 170.683594 218.628906 171.410156 219.527344 172.402344 C 220.292969 173.246094 220.765625 174.566406 219.886719 175.539062 C 218.480469 177.089844 215.742188 175.503906 214.304688 174.867188 C 212.167969 173.921875 210.054688 172.890625 208.0625 171.664062 C 208.050781 171.660156 208.046875 171.664062 208.039062 171.652344 C 207.535156 171.246094 207.039062 170.839844 206.53125 170.441406 C 205.933594 169.972656 205.316406 170.980469 205.90625 171.449219 C 208.726562 173.660156 211.460938 176 213.90625 178.625 C 215.222656 180.027344 216.683594 181.597656 217.4375 183.398438 C 217.761719 184.171875 217.765625 185.066406 217.3125 185.796875 C 216.484375 187.121094 214.839844 186.949219 213.683594 186.191406 C 212.691406 185.539062 211.855469 184.664062 211.035156 183.808594 C 211.035156 183.800781 211.027344 183.796875 211.023438 183.792969 C 211.023438 183.789062 211.015625 183.789062 211.011719 183.785156 C 210.898438 183.667969 210.78125 183.546875 210.675781 183.429688 C 208.398438 181.058594 206.105469 178.707031 203.742188 176.421875 C 203.195312 175.890625 202.335938 176.703125 202.882812 177.230469 C 205.246094 179.515625 207.539062 181.867188 209.8125 184.238281 C 209.933594 184.367188 210.058594 184.5 210.179688 184.625 C 211.300781 186.035156 212.828125 188.007812 212.601562 189.929688 C 212.472656 190.996094 211.617188 191.753906 210.675781 192.140625 C 210.03125 192.410156 209.414062 192.238281 208.828125 191.902344 C 207.425781 191.09375 206.339844 189.75 205.3125 188.53125 C 204.070312 187.054688 202.769531 185.652344 201.386719 184.304688 C 200.019531 182.964844 198.59375 181.699219 197.175781 180.417969 C 196.972656 180.125 196.546875 180.152344 196.296875 180.378906 C 196.28125 180.390625 196.269531 180.40625 196.257812 180.417969 C 196.234375 180.445312 196.214844 180.464844 196.195312 180.496094 C 196.109375 180.621094 196.082031 180.769531 196.121094 180.914062 C 196.121094 180.914062 196.121094 180.917969 196.121094 180.921875 C 196.125 180.953125 196.128906 180.984375 196.140625 181.015625 C 196.664062 183.632812 196.839844 186.53125 196.234375 189.148438 C 195.980469 190.25 195.515625 191.292969 194.582031 191.992188 C 194.074219 192.375 193.429688 192.625 192.804688 192.382812 C 192.078125 192.101562 191.691406 191.28125 191.460938 190.585938 Z M 191.46875 190.582031 " fill-opacity="1" fill-rule="nonzero"/></g><path fill="#ffffff" d="M 129.609375 177.671875 C 129.394531 177.5 129.167969 177.339844 128.9375 177.1875 C 128.851562 177.671875 128.703125 178.164062 128.585938 178.601562 C 128.210938 180.019531 127.773438 181.421875 127.316406 182.8125 C 126.183594 186.292969 124.921875 189.765625 123.378906 193.085938 C 122.789062 194.355469 122.15625 195.632812 121.339844 196.773438 C 120.773438 197.566406 120.136719 198.003906 119.230469 198.347656 C 116.4375 199.410156 113.277344 199.71875 110.328125 200.003906 C 107.0625 200.320312 103.71875 200.511719 100.445312 200.191406 C 99.84375 200.132812 99.164062 200.0625 98.535156 199.890625 C 98.546875 200.539062 98.515625 201.191406 98.601562 201.835938 C 98.601562 201.835938 98.601562 201.835938 98.601562 201.839844 C 98.640625 201.847656 98.679688 201.851562 98.703125 201.851562 C 98.878906 201.851562 99.070312 201.917969 99.246094 201.945312 C 99.628906 202.003906 100.019531 202.046875 100.40625 202.089844 C 102.375 202.28125 104.367188 202.28125 106.335938 202.226562 C 110.214844 202.125 114.144531 201.804688 117.949219 201.007812 C 119.273438 200.726562 120.679688 200.421875 121.894531 199.796875 C 122.949219 199.261719 123.433594 198.1875 123.992188 197.148438 C 125.96875 193.460938 127.441406 189.472656 128.761719 185.503906 C 129.332031 183.789062 129.875 182.054688 130.304688 180.300781 C 130.386719 179.964844 130.464844 179.621094 130.535156 179.28125 C 130.5625 179.148438 130.582031 179.023438 130.609375 178.890625 C 130.625 178.816406 130.617188 178.679688 130.628906 178.664062 C 130.46875 178.277344 129.914062 177.902344 129.617188 177.660156 Z M 129.609375 177.671875 " fill-opacity="1" fill-rule="nonzero"/><path fill="#ffffff" d="M 115.84375 172.058594 C 115.1875 171.707031 114.460938 171.421875 113.730469 171.351562 C 113.320312 173.152344 112.773438 174.921875 111.851562 176.527344 C 110.964844 178.066406 109.820312 179.445312 108.679688 180.808594 C 109.515625 181.09375 110.308594 181.496094 111.046875 182.019531 C 113.230469 179.0625 114.964844 175.640625 115.84375 172.0625 Z M 115.84375 172.058594 " fill-opacity="1" fill-rule="nonzero"/><path fill="#ffffff" d="M 99.753906 198.921875 C 101 199.117188 102.273438 199.152344 103.53125 199.160156 C 106.703125 199.175781 109.894531 198.9375 113.035156 198.503906 C 114.429688 198.308594 115.820312 198.078125 117.183594 197.738281 C 118.039062 197.523438 119.019531 197.304688 119.757812 196.792969 C 120.363281 196.371094 120.929688 195.28125 121.332031 194.539062 C 122.050781 193.222656 122.664062 191.84375 123.246094 190.460938 C 124.519531 187.417969 125.625 184.300781 126.609375 181.152344 C 126.96875 180 127.316406 178.839844 127.601562 177.660156 C 127.84375 176.667969 127.96875 176.253906 127.386719 175.324219 C 125.34375 172.070312 120.628906 169.902344 117.0625 172.050781 C 116.164062 175.914062 114.300781 179.570312 111.960938 182.75 C 112.375 183.132812 112.765625 183.558594 113.125 184.03125 C 113.585938 184.636719 112.585938 185.273438 112.132812 184.671875 C 111.523438 183.871094 110.792969 183.167969 109.941406 182.632812 C 106.40625 180.425781 101.335938 181.4375 98.429688 184.292969 C 96.273438 186.414062 95.679688 189.476562 95.984375 192.394531 C 96.183594 194.335938 96.78125 196.851562 97.976562 198.308594 C 98.167969 198.542969 98.183594 198.523438 98.484375 198.632812 C 98.890625 198.78125 99.332031 198.855469 99.761719 198.921875 Z M 99.753906 198.921875 " fill-opacity="1" fill-rule="nonzero"/><path fill="#000000" d="M 128.894531 175.777344 C 128.386719 173.933594 126.480469 172.328125 124.972656 171.351562 C 123.359375 170.308594 121.316406 169.929688 119.421875 170.101562 C 118.363281 170.195312 117.355469 170.496094 116.441406 171.035156 C 115.464844 170.511719 114.339844 170.082031 113.242188 170.125 C 112.984375 170.136719 112.746094 170.332031 112.691406 170.585938 C 112.289062 172.460938 111.761719 174.296875 110.800781 175.964844 C 109.859375 177.59375 108.609375 179.027344 107.40625 180.464844 C 105.367188 180.078125 103.175781 180.328125 101.105469 181.203125 C 97.714844 182.636719 95.347656 185.390625 94.839844 189.09375 C 94.453125 191.914062 94.953125 194.945312 96.148438 197.523438 C 96.429688 198.121094 96.773438 198.839844 97.304688 199.296875 C 97.375 200.148438 97.265625 201.019531 97.398438 201.875 C 97.535156 202.722656 97.953125 202.933594 98.746094 203.070312 C 100.449219 203.359375 102.195312 203.421875 103.921875 203.441406 C 108.234375 203.484375 112.597656 203.167969 116.847656 202.421875 C 118.484375 202.132812 120.160156 201.804688 121.710938 201.171875 C 122.953125 200.667969 123.652344 200.039062 124.347656 198.902344 C 126.628906 195.164062 128.148438 190.882812 129.5625 186.753906 C 130.289062 184.644531 130.980469 182.507812 131.496094 180.332031 C 131.652344 179.667969 132 178.761719 131.65625 178.125 C 131.125 177.117188 129.890625 176.320312 128.886719 175.773438 Z M 111.847656 176.523438 C 112.769531 174.914062 113.316406 173.144531 113.726562 171.347656 C 114.457031 171.417969 115.183594 171.707031 115.835938 172.050781 C 114.960938 175.632812 113.21875 179.050781 111.042969 182.011719 C 110.304688 181.488281 109.507812 181.082031 108.675781 180.800781 C 109.816406 179.4375 110.960938 178.058594 111.847656 176.519531 Z M 97.972656 198.308594 C 96.773438 196.851562 96.183594 194.335938 95.980469 192.394531 C 95.671875 189.472656 96.269531 186.414062 98.425781 184.292969 C 101.332031 181.4375 106.402344 180.425781 109.9375 182.632812 C 110.789062 183.167969 111.523438 183.871094 112.128906 184.671875 C 112.585938 185.277344 113.582031 184.636719 113.121094 184.03125 C 112.761719 183.558594 112.371094 183.132812 111.957031 182.75 C 114.296875 179.566406 116.160156 175.910156 117.058594 172.050781 C 120.628906 169.90625 125.34375 172.074219 127.382812 175.324219 C 127.96875 176.25 127.839844 176.664062 127.597656 177.660156 C 127.3125 178.839844 126.964844 180 126.605469 181.152344 C 125.621094 184.300781 124.515625 187.417969 123.242188 190.460938 C 122.660156 191.84375 122.042969 193.222656 121.328125 194.539062 C 120.921875 195.285156 120.359375 196.371094 119.753906 196.792969 C 119.015625 197.304688 118.035156 197.523438 117.179688 197.738281 C 115.816406 198.078125 114.421875 198.316406 113.03125 198.503906 C 109.890625 198.9375 106.699219 199.175781 103.527344 199.160156 C 102.269531 199.152344 100.996094 199.117188 99.75 198.921875 C 99.324219 198.855469 98.886719 198.78125 98.476562 198.632812 C 98.171875 198.523438 98.160156 198.542969 97.96875 198.308594 Z M 130.601562 178.902344 C 130.574219 179.03125 130.550781 179.160156 130.527344 179.292969 C 130.457031 179.636719 130.378906 179.976562 130.292969 180.3125 C 129.863281 182.074219 129.320312 183.800781 128.75 185.519531 C 127.429688 189.484375 125.957031 193.472656 123.984375 197.164062 C 123.429688 198.199219 122.945312 199.273438 121.886719 199.8125 C 120.671875 200.433594 119.265625 200.738281 117.941406 201.019531 C 114.136719 201.816406 110.207031 202.136719 106.328125 202.242188 C 104.351562 202.292969 102.363281 202.292969 100.398438 202.101562 C 100.007812 202.0625 99.625 202.019531 99.234375 201.957031 C 99.0625 201.929688 98.867188 201.863281 98.695312 201.863281 C 98.671875 201.863281 98.632812 201.855469 98.59375 201.851562 C 98.59375 201.851562 98.59375 201.851562 98.59375 201.847656 C 98.503906 201.203125 98.535156 200.550781 98.527344 199.902344 C 99.15625 200.074219 99.835938 200.144531 100.4375 200.207031 C 103.710938 200.53125 107.054688 200.335938 110.316406 200.015625 C 113.269531 199.734375 116.425781 199.421875 119.21875 198.363281 C 120.128906 198.015625 120.761719 197.578125 121.332031 196.785156 C 122.148438 195.644531 122.78125 194.371094 123.371094 193.101562 C 124.914062 189.777344 126.171875 186.304688 127.308594 182.824219 C 127.765625 181.433594 128.199219 180.03125 128.578125 178.613281 C 128.695312 178.171875 128.84375 177.6875 128.929688 177.199219 C 129.164062 177.355469 129.386719 177.515625 129.597656 177.6875 C 129.894531 177.925781 130.453125 178.304688 130.613281 178.6875 C 130.601562 178.703125 130.609375 178.839844 130.589844 178.917969 Z M 130.601562 178.902344 " fill-opacity="1" fill-rule="nonzero"/><g clip-path="url(#48f0740df1)"><g clip-path="url(#1818b5280d)"><path fill="#000000" d="M 56.914062 196.457031 L 94 196.457031 L 94 208.445312 L 56.914062 208.445312 Z M 56.914062 196.457031 " fill-opacity="1" fill-rule="nonzero"/></g></g></svg>